<svg xmlns="http://www.w3.org/2000/svg" viewBox="0 0 68 60"><defs><style>.cls-1{fill:#fff;}</style></defs><title>logo-white</title><g id="Layer_2" data-name="Layer 2"><g id="Layer_1-2" data-name="Layer 1"><path class="cls-1" d="M8,0h7V7H8Zm7,0h8V7H15Zm8,0h6V7H23ZM0,7H8v8H0ZM8,7h7v8H8ZM23,7h6v8H23Zm6,0h9v8H29Zm9,0h7v8H38Zm7,0h8v8H45Zm8,0h7v8H53Zm7,0h8v8H60ZM0,15H8v7H0Zm15,0h8v7H15Zm8,0h6v7H23Zm6,0h9v7H29Zm9,0h7v7H38Zm7,0h8v7H45Zm8,0h7v7H53Zm7,0h8v7H60ZM0,22H8v9H0Zm8,0h7v9H8Zm7,0h8v9H15Zm8,0h6v9H23Zm6,0h9v9H29Zm9,0h7v9H38Zm7,0h8v9H45Zm8,0h7v9H53Zm7,0h8v9H60ZM8,31h7v6H8Zm7,0h8v6H15Zm8,0h6v6H23Zm6,0h9v6H29Zm9,0h7v6H38Zm7,0h8v6H45Zm8,0h7v6H53ZM15,37h8v8H15Zm8,0h6v8H23Zm6,0h9v8H29Zm9,0h7v8H38ZM23,45h6v7H23Zm6,0h9v7H29Zm0,7h9v8H29Zm9-7h7v7H38Zm7-8h8v8H45ZM38,0h7V7H38Zm7,0h8V7H45Zm8,0h7V7H53Z"/></g></g></svg>