<svg xmlns="http://www.w3.org/2000/svg" xmlns:xlink="http://www.w3.org/1999/xlink" viewBox="0 0 206.61 196.83"><defs><style>.cls-1{fill:#ffbda1;}.cls-2{fill:#c1ddf7;}.cls-3{fill:#71addb;}.cls-4{fill:#214a81;}.cls-5{fill:#d7e8f7;}.cls-6{fill:#fff;}.cls-7{fill:#cadfef;}.cls-8{fill:#84b4fe;}.cls-9{fill:#538dd3;}.cls-10{fill:#ffd474;}.cls-11{fill:#241c2b;}.cls-12{fill:#03345f;}.cls-13{fill:#072042;}.cls-14{fill:#ffb398;}.cls-15{fill:#0e0e0e;}.cls-16{fill:#052e47;}.cls-17{fill:#faaaab;}.cls-18{fill:#f7c869;}.cls-19{clip-path:url(#clip-path);}.cls-20{fill:#8cb8f2;}.cls-21{clip-path:url(#clip-path-2);}</style><clipPath id="clip-path"><path class="cls-1" d="M92.65,7.1a4.1,4.1,0,1,0,.53-5.79A4.11,4.11,0,0,0,92.65,7.1Z"/></clipPath><clipPath id="clip-path-2"><path class="cls-1" d="M15.18,138.78A4.14,4.14,0,1,1,11.77,134,4.13,4.13,0,0,1,15.18,138.78Z"/></clipPath></defs><title>Asset 1</title><g id="Layer_2" data-name="Layer 2"><g id="OBJECTS"><path class="cls-2" d="M19.41,131.09h165.3a0,0,0,0,1,0,0v5.76a10.94,10.94,0,0,1-10.94,10.94H30.35a10.94,10.94,0,0,1-10.94-10.94v-5.76A0,0,0,0,1,19.41,131.09Z"/><rect class="cls-3" x="85.43" y="147.79" width="33.92" height="14.61"/><path class="cls-4" d="M29.53,34.76H174.6a10.11,10.11,0,0,1,10.11,10.11v86.49a0,0,0,0,1,0,0H19.41a0,0,0,0,1,0,0V44.88A10.11,10.11,0,0,1,29.53,34.76Z"/><rect class="cls-5" x="26.13" y="41.71" width="152.91" height="83.68"/><path class="cls-6" d="M105.8,138.7a3.74,3.74,0,1,1-3.74-3.74A3.73,3.73,0,0,1,105.8,138.7Z"/><rect class="cls-6" x="94.42" y="49.33" width="75.23" height="67.65" rx="3.07" ry="3.07"/><path class="cls-6" d="M39.35,80.5H83.61a3.07,3.07,0,0,1,3.07,3.07v30.33A3.07,3.07,0,0,1,83.61,117H39.35a3.07,3.07,0,0,1-3.07-3.07V83.58A3.08,3.08,0,0,1,39.35,80.5Z"/><rect class="cls-5" x="42.01" y="104.13" width="38.9" height="2.18" rx="1.04" ry="1.04"/><rect class="cls-5" x="42.01" y="109.26" width="23.07" height="2.18" rx="1.04" ry="1.04"/><circle class="cls-5" cx="47.65" cy="91.64" r="6.93"/><path class="cls-7" d="M206.1,168.46H.5A.51.51,0,0,1,0,168a.5.5,0,0,1,.5-.5H206.1a.5.5,0,0,1,.51.5A.51.51,0,0,1,206.1,168.46Z"/><rect class="cls-8" x="134.21" y="85.45" width="25.07" height="25.07" rx="4.52" ry="4.52"/><rect class="cls-9" x="115.85" y="178.97" width="26.49" height="12.19" rx="3.24" ry="3.24"/><rect class="cls-8" x="115.85" y="175.73" width="26.49" height="12.19" rx="3.24" ry="3.24"/><path class="cls-1" d="M149.49,104.56a2.34,2.34,0,0,1,2.27,2.35,2.24,2.24,0,0,1-2.25,2.28,2.34,2.34,0,0,1-2.26-2.35A2.23,2.23,0,0,1,149.49,104.56Z"/><path class="cls-1" d="M192.28,121.28a1.92,1.92,0,0,0-2.84,0,2.26,2.26,0,0,0-.13,3,1.92,1.92,0,0,0,2.83,0A2.25,2.25,0,0,0,192.28,121.28Z"/><path class="cls-10" d="M182.25,130.25,175,124a1.67,1.67,0,0,0-2.5.78,2.4,2.4,0,0,0,.84,2.92L180.6,134a3.32,3.32,0,0,0,4.45-.65l6.12-7.64-2.94-2.86Z"/><polygon class="cls-1" points="165.43 179.75 168.37 179.64 168.32 174.46 165.33 174.6 165.43 179.75"/><path class="cls-11" d="M160.64,182.16l7.78-.09,0-3.4-4.69.05a3.26,3.26,0,0,0-3,3.44Z"/><polygon class="cls-1" points="178.51 179.75 175.57 179.64 174.95 174.46 177.94 174.6 178.51 179.75"/><path class="cls-11" d="M183.29,182.16l-7.5-.09-.34-3.4,4.8.05a3.25,3.25,0,0,1,3,3.44Z"/><polygon class="cls-12" points="165.23 139.55 170.34 139.36 170.87 139.34 175.98 139.15 176.04 146.63 165.62 147.01 165.23 139.55"/><path class="cls-12" d="M174.55,176.93l4.65,0-2.45-19.24L176,139.15l-4.93.81.67,17.87a3.08,3.08,0,0,0,.05.61Z"/><path class="cls-12" d="M164.4,176.71l4.42,0-.65-18.33,2.47-18.32-5.41-.55-2.08,18.55a2.62,2.62,0,0,0,0,.56Z"/><rect class="cls-1" x="169.14" y="120.65" width="3.01" height="4.04"/><path class="cls-1" d="M167.65,118.22a1,1,0,1,1-1-1A1,1,0,0,1,167.65,118.22Z"/><path class="cls-1" d="M175.69,118.22a1,1,0,1,1-1-1A1,1,0,0,1,175.69,118.22Z"/><path class="cls-13" d="M174.78,117.36a4.11,4.11,0,1,1-4.11-4.11A4.11,4.11,0,0,1,174.78,117.36Z"/><path class="cls-10" d="M176,140.05H165.13l-.41-12.76c0-2.14,1.33-3.87,3.33-3.87h5c2,0,3.34,1.73,3.34,3.87Z"/><path class="cls-10" d="M165.34,128.1l-8.15-8.45-.11-.12-8-9.67L152.5,107l7.94,9.6,8.09,8.38Z"/><polygon class="cls-1" points="120.16 46.86 123.02 46.75 121.79 41.71 118.87 41.84 120.16 46.86"/><path class="cls-11" d="M115.5,49.21l7.57-.09,0-3.32-4.56.05a3.18,3.18,0,0,0-3,3.36Z"/><polygon class="cls-14" points="106.77 31.8 109.63 31.69 108.03 27.35 105.12 27.48 106.77 31.8"/><path class="cls-15" d="M102.33,34.84l7.57-.09-.05-3.31-4.56,0a3.17,3.17,0,0,0-3,3.35Z"/><path class="cls-16" d="M121.92,14.84l-19.1,6L104.45,17l5.48,12.65-4.89.29-6-10.68a2.79,2.79,0,0,1,1.32-3.7l.3-.15,18-8.67Z"/><path class="cls-17" d="M85.92,23.94a1.85,1.85,0,0,0-2.75,0A2.17,2.17,0,0,0,83,26.87a1.86,1.86,0,0,0,2.75,0A2.17,2.17,0,0,0,85.92,23.94Z"/><path class="cls-18" d="M87.17,26.29l-2.41-3.58L95,15.79,101.78,4.5l3.7,2.22-7,11.71a2.05,2.05,0,0,1-.64.67Z"/><polygon class="cls-1" points="99.22 4.5 101.56 4.53 102.33 7.61 97.91 6.9 99.22 4.5"/><path class="cls-1" d="M91.27,5.58l.67-.79,1,.88-.73.61-.72-.07A.39.39,0,0,1,91.27,5.58Z"/><path class="cls-1" d="M92.65,7.1a4.1,4.1,0,1,0,.53-5.79A4.11,4.11,0,0,0,92.65,7.1Z"/><g class="cls-19"><polygon class="cls-13" points="92.27 0.43 100.91 7.05 99.5 0 92.27 0.43"/></g><path class="cls-1" d="M96.51,4.35a1.15,1.15,0,1,0,.15-1.62A1.15,1.15,0,0,0,96.51,4.35Z"/><path class="cls-10" d="M115.26,3.8l.09,8.61-12.27,1.91-2.34-9.8,1-.44a10.15,10.15,0,0,1,6-.68l1.92.17Z"/><path class="cls-12" d="M115.35,12.41l8.59.58v-.84a8.34,8.34,0,0,0-8.68-8.35h0Z"/><path class="cls-12" d="M123.94,13,118,25.6,118,24l4.42,20.11-4.64.05-5.37-18.75a2.4,2.4,0,0,1,0-1.16l.11-.47,2.9-13.19Z"/><rect class="cls-6" x="48.09" y="21.91" width="65.18" height="12.4" rx="2.62" ry="2.62" transform="translate(6.72 -14.66) rotate(10.83)"/><path class="cls-20" d="M109.27,36.53l-1.4-2.25a2.87,2.87,0,0,0,.86-1.56A2.91,2.91,0,1,0,105.32,35a2.83,2.83,0,0,0,1.78-.23L108.48,37Zm-1.45-4a2,2,0,1,1-1.58-2.32A2,2,0,0,1,107.82,32.54Z"/><path class="cls-1" d="M98.11,32.8a1.85,1.85,0,0,0-2.75,0,2.17,2.17,0,0,0-.13,2.94,1.86,1.86,0,0,0,2.75,0A2.16,2.16,0,0,0,98.11,32.8Z"/><path class="cls-10" d="M99.39,33.9l-3.57-2.45L103.67,20,101.61,8l4.26-.73,2.21,12.85a2.11,2.11,0,0,1-.35,1.58Z"/><path class="cls-2" d="M133.87,167.3H70.3a4.89,4.89,0,0,1,4.89-4.89H129a4.89,4.89,0,0,1,4.89,4.89Z"/><path class="cls-1" d="M29.31,190.28c0-.24-.56-6.12-.56-6.12l3.05-.61.6,6.11Z"/><path class="cls-15" d="M38.09,189.85l-8.52,1.75L29.05,189l5.88-1.2a2.68,2.68,0,0,1,3.16,2.07Z"/><path class="cls-16" d="M17.93,157.17l12,9.2.38.29a2.83,2.83,0,0,1,1.09,2l1.46,16.86-4.25.63-2.85-17.32,1.47,2.28L13,165.15Z"/><path class="cls-18" d="M10.27,162.68,20.6,159a1.64,1.64,0,0,0,1.08-2L17.29,142.8,9,145.36a5.62,5.62,0,0,0-3.7,7Z"/><rect class="cls-8" x="16.87" y="139.06" width="22.98" height="22.98" rx="4.15" ry="4.15" transform="translate(-35.86 11.46) rotate(-14.12)"/><path class="cls-1" d="M10.19,195.17c.06-.23.89-6,.89-6l3.11.23-.85,6Z"/><path class="cls-11" d="M18.87,196.83l-8.7,0,0-2.67,6,0a2.68,2.68,0,0,1,2.68,2.68Z"/><path class="cls-12" d="M17.39,159.5l1.53,12.11.1.62a2.22,2.22,0,0,1,0,.89l-3.94,18.7-4.65-.34,2.57-19,.09,1.51-2.9-11.78Z"/><path class="cls-1" d="M30.35,153.44A2,2,0,1,1,28.83,151,2,2,0,0,1,30.35,153.44Z"/><polygon class="cls-1" points="27.15 151.87 23.06 154.11 24.35 156 29.15 153.78 27.15 151.87"/><path class="cls-1" d="M15.6,136.76l-1-.35-.45,1.3.94.15.59-.42A.38.38,0,0,0,15.6,136.76Z"/><path class="cls-1" d="M15.18,138.78A4.14,4.14,0,1,1,11.77,134,4.13,4.13,0,0,1,15.18,138.78Z"/><g class="cls-21"><polygon class="cls-13" points="12.12 132.78 7.97 142.95 5.59 136.09 12.12 132.78"/></g><path class="cls-1" d="M10.42,138.36a1.16,1.16,0,1,1-1-1.34A1.17,1.17,0,0,1,10.42,138.36Z"/><path class="cls-13" d="M7.59,141.13a3.63,3.63,0,1,1-1.9-4.77A3.63,3.63,0,0,1,7.59,141.13Z"/><path class="cls-1" d="M12.88,141.57l.41,5.74-3.75-2.14.14-3.5Z"/><path class="cls-10" d="M15.36,162.69a2.29,2.29,0,0,1-2-1l-7.3-10.43a2.31,2.31,0,0,1,.56-3.22h0a2.32,2.32,0,0,1,3.22.57l6.09,8.7,8.94-5.15,2.31,4-10.78,6.2A2.2,2.2,0,0,1,15.36,162.69Z"/><rect class="cls-6" x="36.7" y="59.37" width="40.56" height="2.18" rx="1.04" ry="1.04"/><rect class="cls-6" x="36.7" y="73.11" width="40.56" height="2.18" rx="1.04" ry="1.04"/><rect class="cls-6" x="36.7" y="66.21" width="49.71" height="2.18" rx="1.04" ry="1.04"/></g></g></svg>